<svg version="1.0" xmlns="http://www.w3.org/2000/svg" width="933.333" height="933.333" viewBox="0 0 700 700"><path d="M327.8.4c-.1.2-3.9.6-8.3 1-39.6 3-84.1 15.3-121 33.2-18 8.7-44.8 24.7-55.5 33.1-.8.6-5.1 4-9.5 7.4C91 108.2 52.3 157.5 31.5 205c-2.5 5.8-5.2 11.8-5.9 13.5-5.1 11.5-14.8 42.3-17.1 54.6-.3 1.3-1.1 5.8-2 9.9-2.2 11.5-3 16-4.1 25.5-2.6 23-2.6 66.7.1 82.6.2 1.3.6 4.6.9 7.4.9 7.8 2.2 15.2 5.1 28.5 2.1 9.6 9.1 33.9 11.4 39.5.5 1.1 3 7.5 5.5 14.2 5.4 14 18.1 39.4 24.9 50.1 2.6 4 4.7 7.6 4.7 8.1s.3 1.1.8 1.3c.4.2 3.3 4.1 6.4 8.8 9.9 14.8 24.9 32.8 40.6 48.6 35.5 35.7 81.8 65 128.9 81.8 7.6 2.7 25.9 8.4 28.9 9 1 .2 5.7 1.3 10.4 2.5 10.9 2.6 20 4.3 29.9 5.7 2.5.3 5.7.8 7.1 1 16.3 2.5 68.2 2.5 84.2-.1 1.3-.2 4.6-.7 7.3-1 7.1-1 8.7-1.3 11.5-1.8 1.4-.3 4.3-.8 6.5-1.2 2.2-.4 7.6-1.6 12-2.7 4.4-1 8.7-2.1 9.6-2.3 22.1-5 59.3-20.1 82.3-33.4 4.9-2.8 9.1-5.1 9.3-5.1 1 0 26.8-18 35.3-24.7 15.1-11.8 32.4-28.1 45-42.2 3.6-4.1 7-7.9 7.6-8.5.6-.6 4.8-6.1 9.4-12.1 15-19.7 27.7-40.5 38.3-62.8 2.6-5.3 4.7-9.9 4.7-10.2 0-.2 1.1-2.8 2.4-5.7 5.7-12.7 15.1-42.1 18.2-57.3 1.7-8.1 5.4-30.1 5.9-35 .4-3.3.9-7.1 1.1-8.5.9-4.6 1.1-52.4.4-60.5-1.5-15.3-2.1-21-2.5-22.5-.2-.8-.7-3.5-1-6-1.7-12.9-8-38.4-13.6-55.2-32.1-95.5-104.4-173.2-197.4-212-23.6-9.9-57.4-19.5-78.5-22.3-1.9-.3-4.6-.7-6-1-1.3-.2-5.2-.7-8.6-1.1-3.3-.3-7.4-.8-9-1-3.2-.5-54-1.4-54.6-1zm43.7 88c7.9.8 20.9 2.4 24.6 3.1 1.3.3 4.7.9 7.4 1.5 2.8.6 5.9 1.2 7 1.4 7.3 1.4 27.7 8.1 39.6 12.9 41.5 17 81.6 47.7 107.9 82.6 1.4 1.8 3.4 4.5 4.6 5.9 5.6 7.3 15.6 23.9 22.1 36.7 11.5 22.7 21.8 54.7 24.7 77.5.3 2.5.8 5.4 1 6.5 1 5 1.9 22.1 1.9 34.5 0 19.1-1.2 31.3-4.9 50-3.1 15.3-2.5 13.1-6.8 27.2-9.7 31.9-29 66.7-51.1 92.4-22.9 26.6-49.8 47.7-81 63.4-20.8 10.6-48.3 20.2-66.5 23.4-1.9.3-4.6.8-5.9 1.1-3.6.7-16.7 2.4-24.1 3.1-13.6 1.3-42.3.7-54.5-1.1-1.6-.3-4.8-.7-7-1-13.9-1.9-43.1-9.5-51.8-13.4-2.3-1-5.3-2.2-6.7-2.6-4.2-1.3-26.6-12.1-33.3-16.1-45.4-27.3-80.1-64.1-102.9-108.9-12.2-24-22.4-55.9-25.3-79-.3-2.8-.8-5.7-1-6.5-2.3-8.9-2.3-54.5.1-66.3.2-1.2.7-4.2 1-6.7.3-2.5 1.5-8.6 2.5-13.5 1.1-5 2.2-10.1 2.5-11.5 1.1-5.6 7-23.2 10.9-33 17.7-44 47.9-83.4 85.9-111.9 27.9-20.9 58.4-35.6 91.8-44.2 4.6-1.1 9.2-2.3 10.3-2.5 5.7-1.3 11.6-2.3 16.4-2.9 3-.4 6.3-.8 7.4-1.1 1.1-.2 6.1-.6 11.1-1 5-.3 9.2-.7 9.3-.8.5-.5 26.2.1 32.8.8z"/><path d="M333.8 154.5c-.2.1-4 .5-8.5.9-16.1 1.2-34.6 6.3-49.3 13.7-21.4 10.7-41.5 30.6-54 53.4-4.8 8.8-11.5 26-13.9 35.7-3 11.8-3.3 13.5-5.5 27.8-2.7 17.3-2.7 81-.1 93.5.3 1.1.6 3.3.9 5 3.3 21.3 11.8 45.4 22.2 62.8 2.1 3.4 4.1 6.4 4.4 6.7.3.3 1.7 2.1 3 4 4.2 6 12.9 15.2 21.3 22.3 16.2 13.8 40.8 25.1 63.2 29.1 1.7.3 4.1.8 5.4 1.1 3.8.7 18.9 1.7 27.1 1.7 7.9.1 28.1-1.1 29-1.7.3-.1 3-.6 6.1-.9 7-.8 8.1-1 18.8-3.6 29.8-7.3 54.5-21.2 69.6-39.2l3.9-4.6.1-66.6V329H345.4v22.7l.1 22.8 35.5.2 35.5.1.3 34.5.2 34.4-5.2 4.1c-14.9 11.3-34.4 16.3-62.3 15.7-11.7-.3-16.6-.8-22.5-2.5-29.8-8.6-49.4-29.8-59.3-64-2.7-9.2-3.1-11.3-5.2-27-1-7.6-1.3-19-1-41.5.2-17.1.6-32.6.9-34.5.3-1.9.8-5.5 1.1-8 .8-6.2 4.1-20.2 6.7-28 7.4-22.8 22.1-40.3 40.3-48.2 12.2-5.2 15.7-5.9 32.5-6.3 17.1-.4 28 1.6 39.6 7.5 16.7 8.4 27.6 23.2 32.7 44 1.1 4.7 2.1 9 2.3 9.7.2.8 8.1 1.2 29.9 1.2l29.6.1-.6-4.7c-1.8-13.9-8.4-34.5-14.9-46.6-13.8-25.6-38.3-45.1-67.2-53.5-8.4-2.5-14.7-3.7-28.4-5.7-4.3-.7-31.7-1.5-32.2-1z"/></svg>