<?xml version="1.0" standalone="no"?>
<!DOCTYPE svg PUBLIC "-//W3C//DTD SVG 20010904//EN"
 "http://www.w3.org/TR/2001/REC-SVG-20010904/DTD/svg10.dtd">
<svg version="1.0" xmlns="http://www.w3.org/2000/svg"
 width="700.000000pt" height="700.000000pt" viewBox="0 0 700.000000 700.000000"
 preserveAspectRatio="xMidYMid meet">
<metadata>
Created by potrace 1.14, written by Peter Selinger 2001-2017
</metadata>
<g transform="translate(0.000000,700.000000) scale(0.100000,-0.100000)"
fill="#000000" stroke="none">
<path d="M3278 6996 c-1 -2 -39 -6 -83 -10 -396 -30 -841 -153 -1210 -332
-180 -87 -448 -247 -555 -331 -8 -6 -51 -40 -95 -74 -425 -331 -812 -824
-1020 -1299 -25 -58 -52 -118 -59 -135 -51 -115 -148 -423 -171 -546 -3 -13
-11 -58 -20 -99 -22 -115 -30 -160 -41 -255 -26 -230 -26 -667 1 -826 2 -13 6
-46 9 -74 9 -78 22 -152 51 -285 21 -96 91 -339 114 -395 5 -11 30 -75 55
-142 54 -140 181 -394 249 -501 26 -40 47 -76 47 -81 0 -5 3 -11 8 -13 4 -2
33 -41 64 -88 99 -148 249 -328 406 -486 355 -357 818 -650 1289 -818 76 -27
259 -84 289 -90 10 -2 57 -13 104 -25 109 -26 200 -43 299 -57 25 -3 57 -8 71
-10 163 -25 682 -25 842 1 13 2 46 7 73 10 71 10 87 13 115 18 14 3 43 8 65
12 22 4 76 16 120 27 44 10 87 21 96 23 221 50 593 201 823 334 49 28 91 51
93 51 10 0 268 180 353 247 151 118 324 281 450 422 36 41 70 79 76 85 6 6 48
61 94 121 150 197 277 405 383 628 26 53 47 99 47 102 0 2 11 28 24 57 57 127
151 421 182 573 17 81 54 301 59 350 4 33 9 71 11 85 9 46 11 524 4 605 -15
153 -21 210 -25 225 -2 8 -7 35 -10 60 -17 129 -80 384 -136 552 -321 955
-1044 1732 -1974 2120 -236 99 -574 195 -785 223 -19 3 -46 7 -60 10 -13 2
-52 7 -86 11 -33 3 -74 8 -90 10 -32 5 -540 14 -546 10z m437 -880 c79 -8 209
-24 246 -31 13 -3 47 -9 74 -15 28 -6 59 -12 70 -14 73 -14 277 -81 396 -129
415 -170 816 -477 1079 -826 14 -18 34 -45 46 -59 56 -73 156 -239 221 -367
115 -227 218 -547 247 -775 3 -25 8 -54 10 -65 10 -50 19 -221 19 -345 0 -191
-12 -313 -49 -500 -31 -153 -25 -131 -68 -272 -97 -319 -290 -667 -511 -924
-229 -266 -498 -477 -810 -634 -208 -106 -483 -202 -665 -234 -19 -3 -46 -8
-59 -11 -36 -7 -167 -24 -241 -31 -136 -13 -423 -7 -545 11 -16 3 -48 7 -70
10 -139 19 -431 95 -518 134 -23 10 -53 22 -67 26 -42 13 -266 121 -333 161
-454 273 -801 641 -1029 1089 -122 240 -224 559 -253 790 -3 28 -8 57 -10 65
-23 89 -23 545 1 663 2 12 7 42 10 67 3 25 15 86 25 135 11 50 22 101 25 115
11 56 70 232 109 330 177 440 479 834 859 1119 279 209 584 356 918 442 46 11
92 23 103 25 57 13 116 23 164 29 30 4 63 8 74 11 11 2 61 6 111 10 50 3 92 7
93 8 5 5 262 -1 328 -8z"/>
<path d="M3338 5455 c-2 -1 -40 -5 -85 -9 -161 -12 -346 -63 -493 -137 -214
-107 -415 -306 -540 -534 -48 -88 -115 -260 -139 -357 -30 -118 -33 -135 -55
-278 -27 -173 -27 -810 -1 -935 3 -11 6 -33 9 -50 33 -213 118 -454 222 -628
21 -34 41 -64 44 -67 3 -3 17 -21 30 -40 42 -60 129 -152 213 -223 162 -138
408 -251 632 -291 17 -3 41 -8 54 -11 38 -7 189 -17 271 -17 79 -1 281 11 290
17 3 1 30 6 61 9 70 8 81 10 188 36 298 73 545 212 696 392 l39 46 1 666 0
666 -661 0 -660 0 0 -227 1 -228 355 -2 355 -1 3 -345 2 -344 -52 -41 c-149
-113 -344 -163 -623 -157 -117 3 -166 8 -225 25 -298 86 -494 298 -593 640
-27 92 -31 113 -52 270 -10 76 -13 190 -10 415 2 171 6 326 9 345 3 19 8 55
11 80 8 62 41 202 67 280 74 228 221 403 403 482 122 52 157 59 325 63 171 4
280 -16 396 -75 167 -84 276 -232 327 -440 11 -47 21 -90 23 -97 2 -8 81 -12
299 -12 l296 -1 -6 47 c-18 139 -84 345 -149 466 -138 256 -383 451 -672 535
-84 25 -147 37 -284 57 -43 7 -317 15 -322 10z"/>
</g>
</svg>
